<?xml version="1.0" encoding="UTF-8" standalone="no"?>
<!DOCTYPE svg PUBLIC "-//W3C//DTD SVG 1.1//EN"
 "http://www.w3.org/Graphics/SVG/1.1/DTD/svg11.dtd">
<!-- Generated by graphviz version 2.43.0 (0)
 -->
<!-- Title: snakemake_dag Pages: 1 -->
<svg width="291pt" height="476pt"
 viewBox="0.00 0.00 291.00 476.00" xmlns="http://www.w3.org/2000/svg" xmlns:xlink="http://www.w3.org/1999/xlink">
<g id="graph0" class="graph" transform="scale(1 1) rotate(0) translate(4 472)">
<title>snakemake_dag</title>
<polygon fill="white" stroke="transparent" points="-4,4 -4,-472 287,-472 287,4 -4,4"/>
<!-- 1 -->
<g id="node1" class="node">
<title>1</title>
<path fill="none" stroke="#56d0d8" stroke-width="2" d="M121,-36C121,-36 91,-36 91,-36 85,-36 79,-30 79,-24 79,-24 79,-12 79,-12 79,-6 85,0 91,0 91,0 121,0 121,0 127,0 133,-6 133,-12 133,-12 133,-24 133,-24 133,-30 127,-36 121,-36"/>
<text text-anchor="middle" x="106" y="-15.5" font-family="sans" font-size="10.00">dnadiff</text>
</g>
<!-- 2 -->
<g id="node2" class="node">
<title>2</title>
<path fill="none" stroke="#61d856" stroke-width="2" d="M167,-108C167,-108 137,-108 137,-108 131,-108 125,-102 125,-96 125,-96 125,-84 125,-84 125,-78 131,-72 137,-72 137,-72 167,-72 167,-72 173,-72 179,-78 179,-84 179,-84 179,-96 179,-96 179,-102 173,-108 167,-108"/>
<text text-anchor="middle" x="152" y="-87.5" font-family="sans" font-size="10.00">raw_ref</text>
</g>
<!-- 2&#45;&gt;1 -->
<g id="edge1" class="edge">
<title>2&#45;&gt;1</title>
<path fill="none" stroke="grey" stroke-width="2" d="M140.63,-71.7C135.28,-63.56 128.8,-53.69 122.89,-44.7"/>
<polygon fill="grey" stroke="grey" stroke-width="2" points="125.66,-42.54 117.24,-36.1 119.81,-46.38 125.66,-42.54"/>
</g>
<!-- 8 -->
<g id="node8" class="node">
<title>8</title>
<path fill="none" stroke="#56d892" stroke-width="2" d="M193,-36C193,-36 163,-36 163,-36 157,-36 151,-30 151,-24 151,-24 151,-12 151,-12 151,-6 157,0 163,0 163,0 193,0 193,0 199,0 205,-6 205,-12 205,-12 205,-24 205,-24 205,-30 199,-36 193,-36"/>
<text text-anchor="middle" x="178" y="-15.5" font-family="sans" font-size="10.00">busco</text>
</g>
<!-- 2&#45;&gt;8 -->
<g id="edge8" class="edge">
<title>2&#45;&gt;8</title>
<path fill="none" stroke="grey" stroke-width="2" d="M158.43,-71.7C161.36,-63.81 164.89,-54.3 168.14,-45.55"/>
<polygon fill="grey" stroke="grey" stroke-width="2" points="171.45,-46.7 171.65,-36.1 164.88,-44.26 171.45,-46.7"/>
</g>
<!-- 3 -->
<g id="node3" class="node">
<title>3</title>
<path fill="none" stroke="#56a2d8" stroke-width="2" d="M95,-108C95,-108 25,-108 25,-108 19,-108 13,-102 13,-96 13,-96 13,-84 13,-84 13,-78 19,-72 25,-72 25,-72 95,-72 95,-72 101,-72 107,-78 107,-84 107,-84 107,-96 107,-96 107,-102 101,-108 95,-108"/>
<text text-anchor="middle" x="60" y="-87.5" font-family="sans" font-size="10.00">orient_scaffolds</text>
</g>
<!-- 3&#45;&gt;1 -->
<g id="edge2" class="edge">
<title>3&#45;&gt;1</title>
<path fill="none" stroke="grey" stroke-width="2" d="M71.37,-71.7C76.72,-63.56 83.2,-53.69 89.11,-44.7"/>
<polygon fill="grey" stroke="grey" stroke-width="2" points="92.19,-46.38 94.76,-36.1 86.34,-42.54 92.19,-46.38"/>
</g>
<!-- 3&#45;&gt;8 -->
<g id="edge10" class="edge">
<title>3&#45;&gt;8</title>
<path fill="none" stroke="grey" stroke-width="2" d="M88.87,-71.88C104.76,-62.45 124.63,-50.66 141.58,-40.61"/>
<polygon fill="grey" stroke="grey" stroke-width="2" points="143.83,-43.34 150.65,-35.23 140.26,-37.32 143.83,-43.34"/>
</g>
<!-- 10 -->
<g id="node10" class="node">
<title>10</title>
<path fill="none" stroke="#d86e56" stroke-width="2" d="M49,-36C49,-36 19,-36 19,-36 13,-36 7,-30 7,-24 7,-24 7,-12 7,-12 7,-6 13,0 19,0 19,0 49,0 49,0 55,0 61,-6 61,-12 61,-12 61,-24 61,-24 61,-30 55,-36 49,-36"/>
<text text-anchor="middle" x="34" y="-15.5" font-family="sans" font-size="10.00">quast</text>
</g>
<!-- 3&#45;&gt;10 -->
<g id="edge11" class="edge">
<title>3&#45;&gt;10</title>
<path fill="none" stroke="grey" stroke-width="2" d="M53.57,-71.7C50.64,-63.81 47.11,-54.3 43.86,-45.55"/>
<polygon fill="grey" stroke="grey" stroke-width="2" points="47.12,-44.26 40.35,-36.1 40.55,-46.7 47.12,-44.26"/>
</g>
<!-- 4 -->
<g id="node4" class="node">
<title>4</title>
<path fill="none" stroke="#78d856" stroke-width="2" d="M75,-252C75,-252 45,-252 45,-252 39,-252 33,-246 33,-240 33,-240 33,-228 33,-228 33,-222 39,-216 45,-216 45,-216 75,-216 75,-216 81,-216 87,-222 87,-228 87,-228 87,-240 87,-240 87,-246 81,-252 75,-252"/>
<text text-anchor="middle" x="60" y="-231.5" font-family="sans" font-size="10.00">flye</text>
</g>
<!-- 4&#45;&gt;3 -->
<g id="edge4" class="edge">
<title>4&#45;&gt;3</title>
<path fill="none" stroke="grey" stroke-width="2" d="M56.75,-215.89C54.95,-205.54 52.91,-192.06 52,-180 50.8,-164.04 50.8,-159.96 52,-144 52.64,-135.52 53.84,-126.34 55.12,-118.04"/>
<polygon fill="grey" stroke="grey" stroke-width="2" points="58.58,-118.55 56.75,-108.11 51.68,-117.41 58.58,-118.55"/>
</g>
<!-- 7 -->
<g id="node7" class="node">
<title>7</title>
<path fill="none" stroke="#d85656" stroke-width="2" d="M103,-180C103,-180 73,-180 73,-180 67,-180 61,-174 61,-168 61,-168 61,-156 61,-156 61,-150 67,-144 73,-144 73,-144 103,-144 103,-144 109,-144 115,-150 115,-156 115,-156 115,-168 115,-168 115,-174 109,-180 103,-180"/>
<text text-anchor="middle" x="88" y="-159.5" font-family="sans" font-size="10.00">ragtag</text>
</g>
<!-- 4&#45;&gt;7 -->
<g id="edge7" class="edge">
<title>4&#45;&gt;7</title>
<path fill="none" stroke="grey" stroke-width="2" d="M66.92,-215.7C70.07,-207.81 73.88,-198.3 77.38,-189.55"/>
<polygon fill="grey" stroke="grey" stroke-width="2" points="80.69,-190.69 81.16,-180.1 74.19,-188.09 80.69,-190.69"/>
</g>
<!-- 5 -->
<g id="node5" class="node">
<title>5</title>
<path fill="none" stroke="#d8a456" stroke-width="2" d="M75,-324C75,-324 45,-324 45,-324 39,-324 33,-318 33,-312 33,-312 33,-300 33,-300 33,-294 39,-288 45,-288 45,-288 75,-288 75,-288 81,-288 87,-294 87,-300 87,-300 87,-312 87,-312 87,-318 81,-324 75,-324"/>
<text text-anchor="middle" x="60" y="-303.5" font-family="sans" font-size="10.00">filtlong</text>
</g>
<!-- 5&#45;&gt;4 -->
<g id="edge5" class="edge">
<title>5&#45;&gt;4</title>
<path fill="none" stroke="grey" stroke-width="2" d="M60,-287.7C60,-279.98 60,-270.71 60,-262.11"/>
<polygon fill="grey" stroke="grey" stroke-width="2" points="63.5,-262.1 60,-252.1 56.5,-262.1 63.5,-262.1"/>
</g>
<!-- 6 -->
<g id="node6" class="node">
<title>6</title>
<path fill="none" stroke="#d8d356" stroke-width="2" d="M86,-468C86,-468 34,-468 34,-468 28,-468 22,-462 22,-456 22,-456 22,-444 22,-444 22,-438 28,-432 34,-432 34,-432 86,-432 86,-432 92,-432 98,-438 98,-444 98,-444 98,-456 98,-456 98,-462 92,-468 86,-468"/>
<text text-anchor="middle" x="60" y="-447.5" font-family="sans" font-size="10.00">guppy_3.4.4</text>
</g>
<!-- 11 -->
<g id="node11" class="node">
<title>11</title>
<path fill="none" stroke="#56b9d8" stroke-width="2" d="M108,-396C108,-396 12,-396 12,-396 6,-396 0,-390 0,-384 0,-384 0,-372 0,-372 0,-366 6,-360 12,-360 12,-360 108,-360 108,-360 114,-360 120,-366 120,-372 120,-372 120,-384 120,-384 120,-390 114,-396 108,-396"/>
<text text-anchor="middle" x="60" y="-375.5" font-family="sans" font-size="10.00">combine_indiv_reads</text>
</g>
<!-- 6&#45;&gt;11 -->
<g id="edge12" class="edge">
<title>6&#45;&gt;11</title>
<path fill="none" stroke="grey" stroke-width="2" d="M60,-431.7C60,-423.98 60,-414.71 60,-406.11"/>
<polygon fill="grey" stroke="grey" stroke-width="2" points="63.5,-406.1 60,-396.1 56.5,-406.1 63.5,-406.1"/>
</g>
<!-- 7&#45;&gt;3 -->
<g id="edge3" class="edge">
<title>7&#45;&gt;3</title>
<path fill="none" stroke="grey" stroke-width="2" d="M81.08,-143.7C77.93,-135.81 74.12,-126.3 70.62,-117.55"/>
<polygon fill="grey" stroke="grey" stroke-width="2" points="73.81,-116.09 66.84,-108.1 67.31,-118.69 73.81,-116.09"/>
</g>
<!-- 9 -->
<g id="node9" class="node">
<title>9</title>
<path fill="none" stroke="#d8bc56" stroke-width="2" d="M271,-108C271,-108 209,-108 209,-108 203,-108 197,-102 197,-96 197,-96 197,-84 197,-84 197,-78 203,-72 209,-72 209,-72 271,-72 271,-72 277,-72 283,-78 283,-84 283,-84 283,-96 283,-96 283,-102 277,-108 271,-108"/>
<text text-anchor="middle" x="240" y="-87.5" font-family="sans" font-size="10.00">busco_expand</text>
</g>
<!-- 9&#45;&gt;8 -->
<g id="edge9" class="edge">
<title>9&#45;&gt;8</title>
<path fill="none" stroke="grey" stroke-width="2" d="M224.67,-71.7C217.24,-63.3 208.18,-53.07 200.02,-43.86"/>
<polygon fill="grey" stroke="grey" stroke-width="2" points="202.4,-41.27 193.15,-36.1 197.16,-45.91 202.4,-41.27"/>
</g>
<!-- 11&#45;&gt;5 -->
<g id="edge6" class="edge">
<title>11&#45;&gt;5</title>
<path fill="none" stroke="grey" stroke-width="2" d="M60,-359.7C60,-351.98 60,-342.71 60,-334.11"/>
<polygon fill="grey" stroke="grey" stroke-width="2" points="63.5,-334.1 60,-324.1 56.5,-334.1 63.5,-334.1"/>
</g>
</g>
</svg>
